# xmcd
#
# Track frame offsets: 
#        182
#        11550
#        41955
#        57017
#        64602
#        88737
#        95812
#        107647
#        127075
#        159227
#        162925
#        175147
#        203217
#        214297
#        221127
#        235485
#        257230
#        271185
#
# Disc length: 3729 seconds
#
# Revision: 11
# Processed by: cddbd v1.5.2PL0 Copyright (c) Steve Scherf et al.
# Submitted via: ExactAudioCopy v1.0b1
#
DISCID=0c0e8f12
DTITLE=Bill Frisell - Blues Dream
DYEAR=2001
DGENRE=Jazz
TTITLE0=Blues Dream
TTITLE1=Ron Carter
TTITLE2=Pretty Flowers Were Made for Blooming
TTITLE3=Pretty Stars were made to Shine
TTITLE4=Where Do We Go?
TTITLE5=Like Dreamers Do (part one)
TTITLE6=Like Dreamers Do (part two)
TTITLE7=Outlaws
TTITLE8=What Do We Do?
TTITLE9=Episode
TTITLE10=Soul Merchant
TTITLE11=Greg Leisz
TTITLE12=The Tractor
TTITLE13=Fifty Years
TTITLE14=Slow Dance
TTITLE15=Things Will Never Be the Same
TTITLE16=Dream On
TTITLE17=Blues Dream (Reprise)
EXTD=YEAR: 2001 ID3G: 8
EXTT0=
EXTT1=
EXTT2=
EXTT3=
EXTT4=
EXTT5=
EXTT6=
EXTT7=
EXTT8=
EXTT9=
EXTT10=
EXTT11=
EXTT12=
EXTT13=
EXTT14=
EXTT15=
EXTT16=
EXTT17=
PLAYORDER=
